# xmcd CD database file
#
# Track frame offsets:
#	150
#	17268
#	22247
#	53244
#	77888
#	83753
#	112109
#	148561
#	156908
#	185877
#	206334
#	209747
#	245096
#
# Disc length: 3498 seconds
#
# Revision: 1
# Processed by: cddbd v1.5.2PL0 Copyright (c) Steve Scherf et al.
# Submitted via: CDex 1.51
#
DISCID=bc0da80d
DTITLE=Cinzia Eramo - Kind of Magic
DYEAR=2009
DGENRE=Jazz
TTITLE0=The Wedding
TTITLE1=Coughing
TTITLE2=Olhos de Gato
TTITLE3=Fire Waltz
TTITLE4=Misteriously
TTITLE5=The Mountain
TTITLE6=Ida Lupino
TTITLE7=Senza Titolo
TTITLE8=Black is the Color of my true Love's hair
TTITLE9=Lonely Woman
TTITLE10=Teasing
TTITLE11=The Seagulls of Kristiansund
TTITLE12=And now, The Queen
EXTD=YEAR: 2009
EXTT0=
EXTT1=
EXTT2=
EXTT3=
EXTT4=
EXTT5=
EXTT6=
EXTT7=
EXTT8=
EXTT9=
EXTT10=
EXTT11=
EXTT12=
PLAYORDER=
